<?xml version="1.0" encoding="UTF-8"?>
<svg version="1.1" xmlns="http://www.w3.org/2000/svg" width="1536" height="1024">
<path d="M0 0 C506.88 0 1013.76 0 1536 0 C1536 337.92 1536 675.84 1536 1024 C1029.12 1024 522.24 1024 0 1024 C0 686.08 0 348.16 0 0 Z " fill="#FDFDFD" transform="translate(0,0)"/>
<path d="M0 0 C4.43374215 3.314332 6.9193412 7.71220436 8.890625 12.8046875 C10.45751418 25.73152323 5.61667726 36.52760146 -1.859375 46.8671875 C-2.9421875 48.4140625 -2.9421875 48.4140625 -4.046875 49.9921875 C-15.71016575 63.04307233 -33.71683832 70.9581761 -50.859375 72.8671875 C-54.54525207 73.05041607 -58.17513506 73.07399515 -61.859375 72.8671875 C-62.36616442 83.4253004 -62.47726392 92.46087852 -55.296875 100.8671875 C-48.40581936 106.521387 -41.50154686 106.5334555 -32.859375 105.8671875 C-9.19375557 102.02488941 11.79560595 87.95121007 28.140625 70.8671875 C28.924375 70.1040625 29.708125 69.3409375 30.515625 68.5546875 C38.7562243 60.11788345 45.98924142 51.56812923 51.140625 40.8671875 C51.800625 40.8671875 52.460625 40.8671875 53.140625 40.8671875 C58.16593294 49.14548496 58.63167484 58.38244411 56.48046875 67.73828125 C54.23266783 73.97568553 50.4811641 78.9212084 46.140625 83.8671875 C45.66367188 84.43824219 45.18671875 85.00929688 44.6953125 85.59765625 C27.28661622 104.78368016 -1.50445847 115.81138346 -26.859375 117.8671875 C-31.63077813 118.05678211 -36.39708663 118.09774816 -41.171875 118.1171875 C-42.42677734 118.1378125 -43.68167969 118.1584375 -44.97460938 118.1796875 C-58.36000697 118.23548905 -71.35551418 115.25345203 -81.796875 106.3671875 C-82.4775 105.5421875 -83.158125 104.7171875 -83.859375 103.8671875 C-84.725625 102.9390625 -85.591875 102.0109375 -86.484375 101.0546875 C-89.35794126 97.1980591 -91.859375 92.8313857 -91.859375 87.8671875 C-96.98422127 91.05290275 -101.48780861 94.83509142 -106.078125 98.74609375 C-113.72808724 104.58026439 -122.42665424 105.90375022 -131.859375 104.8671875 C-139.50237601 102.62163322 -143.82157251 97.33145174 -147.734375 90.6796875 C-152.29913379 75.21022716 -145.07091119 58.95330318 -139.96704102 44.4230957 C-139.28403419 42.47086433 -138.61226139 40.51502791 -137.94140625 38.55859375 C-137.54155518 37.41592041 -137.1417041 36.27324707 -136.72973633 35.09594727 C-135.85363879 31.845908 -135.61548131 29.21523889 -135.859375 25.8671875 C-136.189375 25.5371875 -136.519375 25.2071875 -136.859375 24.8671875 C-144.01409026 25.24420244 -146.53732457 27.83709954 -151.25 32.87109375 C-159.64092216 42.50558072 -166.6947254 52.67713972 -172.859375 63.8671875 C-173.35244141 64.75253174 -173.35244141 64.75253174 -173.85546875 65.65576172 C-177.02242668 71.63106617 -179.03588936 77.94706158 -181.109375 84.3671875 C-181.47289062 85.47578125 -181.83640625 86.584375 -182.2109375 87.7265625 C-183.09928244 90.43835232 -183.98193633 93.15185328 -184.859375 95.8671875 C-187.23562677 95.97602346 -189.60681476 96.05485446 -191.984375 96.1171875 C-192.64953125 96.15070313 -193.3146875 96.18421875 -194 96.21875 C-199.14953367 96.31972125 -201.89754062 95.0763317 -205.859375 91.8671875 C-210.12046223 87.03027767 -211.20348571 84.25241882 -211.1484375 77.921875 C-210.40330795 70.04766814 -207.50322236 62.50671836 -204.71362305 55.15673828 C-202.94750042 50.42318642 -201.30755688 45.64704629 -199.671875 40.8671875 C-199.30384766 39.825625 -198.93582031 38.7840625 -198.55664062 37.7109375 C-196.56024607 31.84398207 -195.40484527 27.06667498 -195.859375 20.8671875 C-197.54911226 19.98162006 -197.54911226 19.98162006 -199.859375 19.8671875 C-221.01888615 31.15226011 -236.32618656 62.80832659 -242.99658203 84.59936523 C-244.59919668 89.98139251 -246.04984343 95.29621753 -246.859375 100.8671875 C-259.39859278 101.89937921 -259.39859278 101.89937921 -264.484375 98.2421875 C-267.5522885 95.52378313 -269.38814983 92.72915356 -270.859375 88.8671875 C-274.0495124 91.57186921 -277.21917757 94.26641876 -280.26953125 97.12890625 C-289.34957148 105.61951574 -296.1065943 109.27436441 -308.859375 108.8671875 C-315.54183544 107.53540967 -319.37411661 102.95457767 -323.171875 97.6171875 C-326.32903411 91.07464092 -325.14844454 82.93333169 -324.859375 75.8671875 C-325.36984375 76.66640625 -325.8803125 77.465625 -326.40625 78.2890625 C-335.32532811 91.76256347 -346.32966628 105.2427331 -362.859375 108.8671875 C-369.70548859 109.94701614 -374.10823373 108.77569461 -379.8515625 104.9609375 C-385.11132327 99.47605078 -386.56405354 93.47687611 -386.421875 86.0546875 C-386.41236816 85.23572998 -386.40286133 84.41677246 -386.39306641 83.57299805 C-385.90017497 68.65092339 -380.331028 54.58291478 -374.859375 40.8671875 C-373.33419557 37.01472831 -371.8143606 33.16018329 -370.296875 29.3046875 C-369.91055908 28.3252417 -369.52424316 27.3457959 -369.1262207 26.33666992 C-366.09336331 18.59468052 -363.35301485 10.79921779 -360.859375 2.8671875 C-353.73103804 2.2071563 -348.83208086 3.92643312 -342.859375 7.8671875 C-338.74290199 11.62652358 -337.03290441 15.10297185 -336.484375 20.6796875 C-336.56191356 27.51415768 -339.38669379 33.59402914 -341.859375 39.8671875 C-342.27832031 40.97835937 -342.69726562 42.08953125 -343.12890625 43.234375 C-345.11034856 48.4804794 -347.19321482 53.65900422 -349.421875 58.8046875 C-353.76235483 69.23008051 -357.07882206 79.45236341 -355.859375 90.8671875 C-355.364375 91.3621875 -355.364375 91.3621875 -354.859375 91.8671875 C-349.06086314 91.63979488 -345.75677141 90.00516393 -341.859375 85.8671875 C-321.23865012 63.05467191 -310.52994332 32.83567614 -301.859375 3.8671875 C-294.28285582 3.25617789 -289.23140107 4.67265235 -282.859375 8.8671875 C-278.81800791 12.90855459 -277.73294064 16.43145475 -277.60546875 22.03125 C-277.67183571 27.19101748 -279.09936335 31.45797472 -280.921875 36.2421875 C-281.23624512 37.10577881 -281.55061523 37.96937012 -281.87451172 38.85913086 C-283.44706329 43.16153489 -285.07708327 47.44174618 -286.70703125 51.72265625 C-289.74197312 59.73093339 -292.5518705 67.72219088 -294.796875 75.9921875 C-295.00844238 76.74959229 -295.22000977 77.50699707 -295.43798828 78.28735352 C-296.76710131 83.41320517 -297.58632871 88.57507051 -296.859375 93.8671875 C-295.869375 95.3521875 -295.869375 95.3521875 -294.859375 96.8671875 C-287.43954211 96.17157817 -281.62076455 90.92483988 -276.40234375 86.00390625 C-274.859375 84.8671875 -274.859375 84.8671875 -271.859375 84.8671875 C-271.84028076 83.84733765 -271.84028076 83.84733765 -271.82080078 82.80688477 C-271.37612026 73.55552957 -268.75760541 65.45272479 -265.734375 56.8046875 C-265.23054529 55.3288943 -264.72778718 53.85273485 -264.22607422 52.3762207 C-261.36121698 43.98747268 -258.32715291 35.67343961 -255.1574707 27.39501953 C-251.94154808 18.77243204 -249.90776362 9.82534786 -247.859375 0.8671875 C-239.83252415 0.58836005 -235.20403663 2.20421964 -228.9921875 7.44140625 C-225.47568557 11.05044771 -223.94975399 14.28375584 -223.671875 19.3203125 C-223.97738901 23.47021113 -225.03106006 27.37135523 -226.16796875 31.36328125 C-226.94809831 33.75556084 -226.94809831 33.75556084 -226.859375 35.8671875 C-226.28832031 35.07957031 -225.71726562 34.29195313 -225.12890625 33.48046875 C-202.9246321 3.41033631 -202.9246321 3.41033631 -186.859375 0.8671875 C-179.92640618 0.2327982 -173.8278047 -0.28580565 -168.2265625 4.28515625 C-163.72448644 9.49470141 -163.41746849 13.5281928 -163.546875 20.1796875 C-163.54365234 20.99630859 -163.54042969 21.81292969 -163.53710938 22.65429688 C-163.58424714 28.03228708 -164.36720844 32.70108095 -165.859375 37.8671875 C-165.49585938 37.37089844 -165.13234375 36.87460937 -164.7578125 36.36328125 C-154.38410971 22.34548286 -141.38518627 8.22807012 -123.859375 3.8671875 C-118.37677282 3.21670928 -113.65927947 4.16032313 -108.859375 6.8671875 C-104.81781086 10.42975144 -103.24868143 13.94985327 -102.55078125 19.1796875 C-101.79484541 34.93980442 -109.39617725 50.84000215 -114.87475586 65.28979492 C-117.65009542 72.73850626 -119.00957519 79.25372658 -118.984375 87.2421875 C-118.98824219 88.49128906 -118.98824219 88.49128906 -118.9921875 89.765625 C-118.99282346 91.92521608 -118.99282346 91.92521608 -117.859375 93.8671875 C-112.42979257 93.41074832 -109.12946795 92.16289267 -104.671875 89.0546875 C-103.66769531 88.36761719 -102.66351562 87.68054688 -101.62890625 86.97265625 C-96.37807088 83.23363032 -96.37807088 83.23363032 -94.2421875 77.390625 C-94.14637234 76.0084618 -94.06107062 74.62554336 -93.984375 73.2421875 C-91.81909175 49.10357856 -79.48953849 26.0154776 -60.921875 10.4921875 C-59.25701278 9.25284917 -57.56804038 8.04540154 -55.859375 6.8671875 C-54.85132813 6.16851562 -53.84328125 5.46984375 -52.8046875 4.75 C-37.10640923 -5.52729009 -16.98207826 -10.34622415 0 0 Z " fill="#E39227" transform="translate(1093.859375,413.1328125)"/>
<path d="M0 0 C6.62131144 -0.33822023 13.03394713 1.48205488 18.30078125 5.5234375 C23.16644708 10.50495252 24.35644169 14.88600491 24.36328125 21.7734375 C24.09993188 43.99961291 10.23717941 62.46573588 -4.97070312 77.52929688 C-16.23457174 88.2937174 -28.60601975 95.22637058 -43.38671875 100.0234375 C-44.05687012 100.24298096 -44.72702148 100.46252441 -45.41748047 100.6887207 C-49.41586907 101.92294517 -52.89654402 102.43763303 -57.07421875 102.2109375 C-54.73572277 106.618103 -52.30298707 110.26504575 -48.96484375 114.0078125 C-46.95880121 116.34543232 -45.07131486 118.75233695 -43.18505859 121.18676758 C-38.07138754 127.78542064 -32.83472509 134.15854261 -27.07421875 140.2109375 C-26.22947998 141.10449951 -26.22947998 141.10449951 -25.36767578 142.01611328 C-5.82173525 162.56544926 17.3755682 178.1586697 44.86328125 185.9609375 C45.51731934 186.1475293 46.17135742 186.33412109 46.84521484 186.52636719 C49.1946653 187.15116733 51.55069811 187.69103874 53.92578125 188.2109375 C55.70915894 188.60261108 55.70915894 188.60261108 57.52856445 189.00219727 C69.10648462 191.37668007 80.44765629 191.7309392 92.23828125 191.6484375 C93.20675995 191.64439911 94.17523865 191.64036072 95.17306519 191.63619995 C110.67964345 191.54589449 125.60818548 190.65705785 140.85418701 187.6229248 C143.18810562 187.15876787 145.52395981 186.70503602 147.85986328 186.25097656 C169.43054892 182.03035126 190.81599035 177.36531318 211.92578125 171.2109375 C214.02728495 170.60656632 216.12884851 170.00240328 218.23046875 169.3984375 C225.64071364 167.25800638 233.03694474 165.07109672 240.4296875 162.87109375 C319.50511592 139.37243823 319.50511592 139.37243823 353.95996094 137.60668945 C358.38115066 137.36468861 362.67884231 136.83545648 367.05078125 136.1484375 C376.96256021 134.71117632 386.93387238 135.03292624 396.92578125 135.2109375 C396.92578125 135.8709375 396.92578125 136.5309375 396.92578125 137.2109375 C393.52840678 138.20629419 390.26562919 138.44193804 386.73828125 138.6484375 C382.06656357 138.98175961 377.69362721 139.56110258 373.15234375 140.67578125 C366.57526529 142.25658783 359.86306301 143.22931816 353.17578125 144.2109375 C346.7747002 145.18992637 340.96845429 146.81778722 334.91796875 149.09765625 C329.24776436 151.16447988 323.53073537 152.70590534 317.67578125 154.1484375 C309.60964429 156.18683738 301.72971919 158.45760017 293.88671875 161.23046875 C290.92578125 162.2109375 290.92578125 162.2109375 288.5234375 162.66015625 C284.13876236 163.58983925 280.05527849 165.39263047 275.89648438 167.0390625 C272.70157062 168.27463104 269.88697526 169.21728036 266.484375 169.7734375 C265.64003906 169.9178125 264.79570313 170.0621875 263.92578125 170.2109375 C263.59578125 170.8709375 263.26578125 171.5309375 262.92578125 172.2109375 C261.20751953 172.95703125 261.20751953 172.95703125 258.99609375 173.6484375 C258.20074219 173.90367187 257.40539062 174.15890625 256.5859375 174.421875 C255.74933594 174.68226563 254.91273438 174.94265625 254.05078125 175.2109375 C252.40622889 175.72757759 250.76293939 176.24825909 249.12109375 176.7734375 C248.38906738 177.00160156 247.65704102 177.22976563 246.90283203 177.46484375 C244.65659866 178.22774727 244.65659866 178.22774727 241.92578125 180.2109375 C239.59768582 180.89567145 237.26340348 181.55946901 234.92578125 182.2109375 C233.66912707 182.6570771 232.41785672 183.11861862 231.171875 183.59375 C230.46957764 183.86018311 229.76728027 184.12661621 229.04370117 184.40112305 C227.99533081 184.8019812 227.99533081 184.8019812 226.92578125 185.2109375 C210.10945479 191.63334303 193.03539003 197.26732753 175.93847656 202.88818359 C172.71877931 203.9473809 169.50486428 205.0228142 166.29296875 206.10546875 C149.13951797 211.81430105 131.44386444 215.63235705 113.61328125 218.5234375 C112.13964111 218.76247803 112.13964111 218.76247803 110.63623047 219.00634766 C98.27271499 220.90343927 85.98456454 221.39227258 73.48828125 221.3984375 C72.18568359 221.41068359 70.88308594 221.42292969 69.54101562 221.43554688 C60.82975043 221.44855524 52.50503381 220.70877469 43.92578125 219.2109375 C43.08748779 219.06487061 42.24919434 218.91880371 41.38549805 218.76831055 C30.67092782 216.77226434 20.8569284 213.70540431 10.92578125 209.2109375 C9.75402344 208.68628906 8.58226562 208.16164063 7.375 207.62109375 C-17.37283554 195.92161644 -36.4804401 176.02320368 -51.07421875 153.2109375 C-51.68233398 152.26734375 -51.68233398 152.26734375 -52.30273438 151.3046875 C-59.22769621 140.42422374 -64.75553739 128.87280243 -70.1652832 117.18676758 C-74.34249502 107.23416482 -74.34249502 107.23416482 -82.07421875 100.2109375 C-82.35652344 101.0771875 -82.63882813 101.9434375 -82.9296875 102.8359375 C-84.00250869 105.99947849 -85.16885003 109.10081022 -86.38671875 112.2109375 C-89.91853759 121.33740742 -93.25260402 130.53622983 -96.265625 139.84765625 C-96.87748434 141.63594079 -97.54028194 143.40690304 -98.2265625 145.16796875 C-101.32805956 153.26579845 -103.25883624 161.20254137 -104.81811523 169.72192383 C-104.96966064 170.54974365 -105.12120605 171.37756348 -105.27734375 172.23046875 C-105.40786133 172.97401611 -105.53837891 173.71756348 -105.67285156 174.48364258 C-106.07421875 176.2109375 -106.07421875 176.2109375 -107.07421875 177.2109375 C-108.16637392 188.39101198 -108.69268459 199.72808645 -102.07421875 209.2109375 C-101.74421875 210.2009375 -101.41421875 211.1909375 -101.07421875 212.2109375 C-113.47999192 212.92757395 -124.2371223 212.07288996 -134.51171875 204.1484375 C-140.7802811 198.13221134 -145.09776624 188.78312929 -145.41870117 180.12670898 C-145.82536063 152.09973931 -134.04840849 124.92311782 -124.07421875 99.2109375 C-123.06142269 96.54897029 -122.06591041 93.88083084 -121.07421875 91.2109375 C-120.70119629 90.20933594 -120.32817383 89.20773437 -119.94384766 88.17578125 C-107.26494191 55.82774108 -107.26494191 55.82774108 -99.07421875 22.2109375 C-89.17902139 22.66904849 -82.00006971 26.10137696 -75.07421875 33.2109375 C-71.25518552 38.55758403 -70.88263939 43.5275927 -70.51171875 49.9609375 C-70.44694336 51.00701172 -70.44694336 51.00701172 -70.38085938 52.07421875 C-70.27532279 53.78625672 -70.17431965 55.49857311 -70.07421875 57.2109375 C-69.51734375 56.38851562 -68.96046875 55.56609375 -68.38671875 54.71875 C-61.00161971 43.88411817 -53.01822966 33.81746773 -44.07421875 24.2109375 C-43.41550781 23.49808594 -42.75679688 22.78523438 -42.078125 22.05078125 C-30.8955975 10.37325253 -16.20091036 1.64755021 0 0 Z " fill="#248CB4" transform="translate(507.07421875,388.7890625)"/>
<path d="M0 0 C9.47346817 -0.42377708 18.86630335 1.47705196 26.20703125 7.75390625 C30.17445951 11.56841436 31.83583067 14.31080913 31.95703125 19.87890625 C31.78870102 28.09738224 28.56933786 32.41788765 22.83203125 38.00390625 C18.51824158 41.616602 13.95684954 43.02149145 8.51953125 44.19140625 C8.51953125 40.26547794 9.0216951 38.68635726 10.51953125 35.19140625 C12.92846462 28.82738014 14.2332677 21.42834614 11.6015625 14.921875 C10.14759557 12.5965777 9.13273408 12.03893149 6.51953125 11.19140625 C1.40510824 10.27081011 -1.37087387 11.45577946 -5.54296875 14.25390625 C-11.67957341 18.88900126 -17.75272239 24.38085041 -19.48046875 32.19140625 C-21.08712845 47.32574394 -14.83834319 56.54407642 -6.6640625 68.46386719 C1.84956763 80.89011447 6.15519426 92.90296421 4.51953125 108.19140625 C1.80029271 120.22938361 -5.8154953 130.70162797 -15.79296875 137.84765625 C-32.58815592 148.39847896 -50.27161986 151.68103198 -69.82421875 147.94921875 C-77.99423068 145.6183624 -84.09480868 139.95023609 -88.29296875 132.69140625 C-91.22054104 126.63499108 -90.94524765 120.7809382 -90.48046875 114.19140625 C-91.32867188 114.77148438 -92.176875 115.3515625 -93.05078125 115.94921875 C-108.63774018 126.41006928 -124.92420918 133.83556006 -144.10546875 130.56640625 C-151.93129681 128.56445023 -159.32348271 123.1281398 -163.48046875 116.19140625 C-170.70948005 100.40468687 -168.26742675 84.35250999 -162.45605469 68.63720703 C-157.86504808 57.1275213 -151.7245523 47.41655157 -143.48046875 38.19140625 C-143.00480469 37.57394531 -142.52914062 36.95648438 -142.0390625 36.3203125 C-135.20931406 27.49260781 -124.75400802 20.36185288 -114.48046875 16.19140625 C-113.74054687 15.87429688 -113.000625 15.5571875 -112.23828125 15.23046875 C-102.40498767 11.6216169 -90.39055237 11.32612903 -80.79296875 15.62890625 C-75.37804062 18.85402851 -71.50647727 22.10490368 -69.48046875 28.19140625 C-67.82610768 39.73517013 -69.81615435 50.06311708 -76.27734375 59.9375 C-88.03376412 75.38543637 -103.14908414 83.28196646 -121.48046875 88.19140625 C-122.17398438 88.39765625 -122.8675 88.60390625 -123.58203125 88.81640625 C-126.15357628 89.32436576 -128.61249568 89.2850726 -131.23046875 89.25390625 C-132.2153125 89.24488281 -133.20015625 89.23585938 -134.21484375 89.2265625 C-134.9625 89.21496094 -135.71015625 89.20335937 -136.48046875 89.19140625 C-137.33345325 102.98823846 -137.33345325 102.98823846 -132.10546875 115.19140625 C-128.21770953 118.15350851 -124.26621671 118.72482632 -119.359375 118.66015625 C-108.45339677 116.88442031 -93.21433922 109.51649369 -86.62109375 100.70703125 C-85.62904693 99.01952892 -84.67150367 97.31114547 -83.75390625 95.58203125 C-79.82583959 88.2078693 -74.41468673 83.85562083 -66.48046875 81.19140625 C-62.05340177 80.32050783 -58.41992588 80.2685161 -54.296875 82.23046875 C-51.34289271 84.35828698 -49.70252377 85.93852702 -49.0546875 89.59375 C-49.04404683 91.83893206 -49.16940132 93.96949603 -49.48046875 96.19140625 C-50.4240625 96.30355469 -50.4240625 96.30355469 -51.38671875 96.41796875 C-59.70933257 97.69644256 -65.1963303 100.95060458 -70.35546875 107.62890625 C-74.04585198 113.2949492 -75.28493465 119.48752375 -74.48046875 126.19140625 C-73.52301554 130.60856433 -72.24069744 133.45018328 -68.98046875 136.62890625 C-62.41963366 139.55785049 -56.15312298 140.15949715 -49.35546875 137.62890625 C-47.70911048 136.86060572 -46.08310127 136.0471809 -44.48046875 135.19140625 C-43.68382812 134.76601563 -42.8871875 134.340625 -42.06640625 133.90234375 C-34.80232794 129.5536146 -30.08918069 123.25362459 -27.48046875 115.19140625 C-27.08880722 111.75445937 -27.08880722 111.75445937 -27.10546875 108.06640625 C-27.07710937 106.84695313 -27.04875 105.6275 -27.01953125 104.37109375 C-27.61173824 94.85481899 -32.57849063 86.89191627 -37.85546875 79.25390625 C-46.96626813 65.67790053 -53.29319257 54.84504162 -51.0546875 37.984375 C-48.55785634 26.05166658 -40.15616389 17.26634506 -30.48046875 10.19140625 C-20.94958905 4.05508644 -11.1989193 0.86416858 0 0 Z " fill="#37A494" transform="translate(685.48046875,399.80859375)"/>
<path d="M0 0 C1.63027634 0.00173721 1.63027634 0.00173721 3.29348755 0.00350952 C20.88268513 0.04042538 38.07289766 0.83815716 55.5 3.3125 C56.40540527 3.4352832 57.31081055 3.55806641 58.24365234 3.68457031 C62.9509786 4.33121532 67.63228962 5.06919198 72.30761719 5.91650391 C73.7807014 6.18257769 75.25538334 6.43993995 76.73144531 6.68896484 C93.35495213 9.50233826 109.38533586 14.45133635 125.5 19.3125 C125.5 19.6425 125.5 19.9725 125.5 20.3125 C118.94124609 20.56638725 112.56046295 20.26431998 106.03944397 19.60272217 C93.01791626 18.29899856 80.09174257 18.00353059 67.01196289 18.05175781 C63.56834273 18.0624818 60.12524522 18.05178307 56.68164062 18.0390625 C41.86091416 18.02922717 27.24073645 18.78672912 12.5 20.3125 C11.74042999 20.39046814 10.98085999 20.46843628 10.19827271 20.54876709 C5.70809453 21.01903816 1.22852077 21.55509815 -3.25 22.125 C-3.91056396 22.20831573 -4.57112793 22.29163147 -5.25170898 22.37747192 C-19.42389323 24.17714438 -33.48686425 26.53075338 -47.5 29.3125 C-48.69119949 29.54637421 -48.69119949 29.54637421 -49.90646362 29.78497314 C-66.67560585 33.09886997 -83.25689169 37.08667658 -99.83032227 41.25097656 C-103.37769124 42.14215162 -106.92739862 43.02359701 -110.47782993 43.90248108 C-113.2768642 44.59668947 -116.07447082 45.29652107 -118.87171745 45.99789429 C-120.79976088 46.48020149 -122.7290269 46.95761334 -124.65834045 47.43481445 C-132.34290671 49.37597537 -139.81452105 51.66644304 -147.29942322 54.25512695 C-150.51997708 55.31909982 -153.67739888 56.06382729 -156.99609375 56.71875 C-160.55550516 57.5627914 -164.01845731 58.6974336 -167.5 59.8125 C-173.13044959 61.61520601 -178.71490766 63.09949677 -184.5 64.3125 C-186.50239738 64.97193095 -188.50217098 65.63935539 -190.5 66.3125 C-192.64501088 66.94149319 -194.79369869 67.55804096 -196.9453125 68.1640625 C-201.9064138 69.57055358 -206.85928657 71.00018689 -211.8046875 72.4609375 C-254.6172222 85.08108175 -300.35890384 97.30895177 -345.30078125 97.515625 C-346.29845016 97.52132507 -347.29611908 97.52702515 -348.32402039 97.53289795 C-350.42571985 97.54227994 -352.52743357 97.54885458 -354.62915039 97.55273438 C-357.76671697 97.56235955 -360.90360428 97.59341615 -364.04101562 97.625 C-381.38732023 97.71662637 -398.8131899 96.53108906 -415.5625 91.6875 C-416.45549805 91.43516602 -417.34849609 91.18283203 -418.26855469 90.92285156 C-438.50398089 84.94952989 -459.67700623 75.4947967 -475.5 61.3125 C-476.32628906 60.59320312 -477.15257812 59.87390625 -478.00390625 59.1328125 C-487.02951168 51.16823244 -495.17314505 42.87534338 -502.5 33.3125 C-502.17 32.6525 -501.84 31.9925 -501.5 31.3125 C-500.71238281 32.26769531 -499.92476563 33.22289062 -499.11328125 34.20703125 C-487.18035867 48.46765148 -474.83214054 58.43846269 -458.5 67.3125 C-457.56027344 67.82683594 -456.62054688 68.34117187 -455.65234375 68.87109375 C-453.29684976 70.10054671 -450.92606511 71.22943522 -448.5 72.3125 C-447.15421875 72.92158203 -447.15421875 72.92158203 -445.78125 73.54296875 C-436.16640984 77.56980258 -426.14879743 79.606376 -415.98388672 81.76171875 C-413.73750817 82.25983454 -411.52321348 82.82374129 -409.30078125 83.41796875 C-402.14017777 85.10324953 -394.82495889 85.1109605 -387.5 85.3125 C-386.33742676 85.34649902 -385.17485352 85.38049805 -383.97705078 85.41552734 C-365.06915008 85.8920345 -347.14399771 84.86414849 -328.5 81.3125 C-327.47471191 81.11994629 -326.44942383 80.92739258 -325.39306641 80.72900391 C-314.08181175 78.5692381 -302.8708905 75.99124038 -291.6875 73.25 C-290.72755127 73.01684082 -289.76760254 72.78368164 -288.77856445 72.54345703 C-283.1541309 71.12912866 -277.77468318 69.37751912 -272.34667969 67.34082031 C-269.41178538 66.28063379 -266.46060189 65.35633415 -263.47265625 64.45703125 C-254.88612147 61.85762419 -246.41936356 58.91887888 -237.9375 56 C-236.22105967 55.4107983 -234.50458807 54.82168767 -232.78808594 54.23266602 C-219.3234537 49.60896666 -205.87414598 44.94534015 -192.46594238 40.16020203 C-189.4444584 39.08270886 -186.42178341 38.00857712 -183.39904785 36.93460083 C-181.9117162 36.40508473 -180.4249557 35.87396088 -178.93884277 35.34103394 C-170.54468203 32.33088684 -162.16910599 29.53425421 -153.56396484 27.1784668 C-150.50608219 26.314219 -147.50674886 25.33940013 -144.5 24.3125 C-137.89734321 22.07681779 -131.2223795 20.15234396 -124.5 18.3125 C-123.8002002 18.12042969 -123.10040039 17.92835938 -122.37939453 17.73046875 C-101.94932129 12.15658738 -81.40771454 7.68204466 -60.5 4.3125 C-59.25089844 4.10753906 -58.00179688 3.90257812 -56.71484375 3.69140625 C-37.87736039 0.79505899 -19.03425044 -0.06331795 0 0 Z " fill="#A09D46" transform="translate(959.5,540.6875)"/>
<path d="M0 0 C7.12833696 -0.6600312 12.02729414 1.05924562 18 5 C22.11647301 8.75933608 23.82647059 12.23578435 24.375 17.8125 C24.29746144 24.64697018 21.47268121 30.72684164 19 37 C18.58105469 38.11117187 18.16210938 39.22234375 17.73046875 40.3671875 C15.74902644 45.6132919 13.66616018 50.79181672 11.4375 55.9375 C7.09702017 66.36289301 3.78055294 76.58517591 5 88 C5.495 88.495 5.495 88.495 6 89 C11.79851186 88.77260738 15.10260359 87.13797643 19 83 C39.62072488 60.18748441 50.32943168 29.96848864 59 1 C66.57651918 0.38899039 71.62797393 1.80546485 78 6 C82.04136709 10.04136709 83.12643436 13.56426725 83.25390625 19.1640625 C83.18753929 24.32382998 81.76001165 28.59078722 79.9375 33.375 C79.62312988 34.23859131 79.30875977 35.10218262 78.98486328 35.99194336 C77.41231171 40.29434739 75.78229173 44.57455868 74.15234375 48.85546875 C71.11740188 56.86374589 68.3075045 64.85500338 66.0625 73.125 C65.85093262 73.88240479 65.63936523 74.63980957 65.42138672 75.42016602 C64.09227369 80.54601767 63.27304629 85.70788301 64 91 C64.99 92.485 64.99 92.485 66 94 C70.53474362 93.57486779 73.4735949 91.57163619 77.1328125 89.05859375 C79 88 79 88 82 88 C81.22127424 93.06171744 78.81804807 96.64209507 74.79296875 99.6484375 C67.5277487 104.22407532 60.74266934 106.79478812 52 106 C45.20737361 103.77482929 41.77093803 100.48888588 37.6875 94.75 C34.53034089 88.20745342 35.71093046 80.06614419 36 73 C35.48953125 73.79921875 34.9790625 74.5984375 34.453125 75.421875 C25.53404689 88.89537597 14.52970872 102.3755456 -2 106 C-8.84611359 107.07982864 -13.24885873 105.90850711 -18.9921875 102.09375 C-24.25194827 96.60886328 -25.70467854 90.60968861 -25.5625 83.1875 C-25.55299316 82.36854248 -25.54348633 81.54958496 -25.53369141 80.70581055 C-25.04079997 65.78373589 -19.471653 51.71572728 -14 38 C-12.47482057 34.14754081 -10.9549856 30.29299579 -9.4375 26.4375 C-9.05118408 25.4580542 -8.66486816 24.4786084 -8.2668457 23.46948242 C-5.23398831 15.72749302 -2.49363985 7.93203029 0 0 Z " fill="#8DB03B" transform="translate(733,416)"/>
<path d="M0 0 C-0.42688353 4.87866895 -2.40332561 6.74836129 -5.9375 10 C-11.54921341 15.34335499 -16.16908656 21.1310529 -20.77050781 27.34716797 C-22.79459707 30.06819344 -24.86637181 32.75220609 -26.9375 35.4375 C-27.34822754 35.97028564 -27.75895508 36.50307129 -28.18212891 37.05200195 C-29.0233616 38.14272509 -29.86499992 39.23313548 -30.70703125 40.32324219 C-31.58394142 41.46044366 -32.4588798 42.59916783 -33.33203125 43.73925781 C-56.75514704 74.30068627 -56.75514704 74.30068627 -64.8125 75.375 C-72.3491838 74.48833132 -77.0479666 68.2769472 -81.64941406 62.71337891 C-96.17999159 44.27961299 -96.17999159 44.27961299 -96 36 C-90.95193991 32.89350148 -86.78150722 32.12490792 -81 33 C-75.2612787 34.88102532 -70.06723021 38.55146695 -66 43 C-66 43.66 -66 44.32 -66 45 C-63.23784028 42.24822434 -60.4910532 39.48348668 -57.765625 36.6953125 C-51.49923471 30.31184316 -45.33199042 24.1696746 -38 19 C-37.07445312 18.319375 -36.14890625 17.63875 -35.1953125 16.9375 C-8.73248643 -2.06822047 -8.73248643 -2.06822047 0 0 Z " fill="#99CB3F" transform="translate(1059,331)"/>
<path d="M0 0 C2.2430256 1.63317072 2.91099017 2.53249791 3.43359375 5.27734375 C3.45874583 22.40591198 -5.68043374 36.02426712 -16 49 C-16.78632813 50.00160156 -17.57265625 51.00320313 -18.3828125 52.03515625 C-21.14609655 55.16550341 -23.98863466 57.62830327 -27.3125 60.125 C-27.88282959 60.55804443 -28.45315918 60.99108887 -29.04077148 61.43725586 C-36.51120729 67.00439592 -42.87796214 70.16436998 -52.25 70.0625 C-53.32765625 70.05347656 -54.4053125 70.04445313 -55.515625 70.03515625 C-56.74539063 70.01775391 -56.74539063 70.01775391 -58 70 C-50.19802639 49.93053651 -38.02321816 31.25226089 -24 15 C-23.49339844 14.360625 -22.98679687 13.72125 -22.46484375 13.0625 C-16.66350224 5.82294291 -9.89571553 -1.90969949 0 0 Z " fill="#F9FCFD" transform="translate(487,412)"/>
<path d="M0 0 C2.375 1.5 2.375 1.5 4 4 C4.74544987 10.28307746 3.39508962 15.21339034 1 21 C0.43152344 22.39412109 0.43152344 22.39412109 -0.1484375 23.81640625 C-6.51290203 37.92491578 -18.2521899 49.11388553 -32 56 C-32.63292969 56.32226562 -33.26585937 56.64453125 -33.91796875 56.9765625 C-37.74212112 58.78311572 -40.79269818 59.30785135 -45 59 C-43.9821867 44.07207165 -33.7290908 27.09154731 -24 16 C-23.58314941 15.51370117 -23.16629883 15.02740234 -22.73681641 14.52636719 C-8.88220934 -1.57905944 -8.88220934 -1.57905944 0 0 Z " fill="#FDFBF9" transform="translate(1080,419)"/>
<path d="M0 0 C2.75484775 2.91302082 3.45269107 5.02604968 3.5 9 C3.1337879 20.4746457 -3.10300697 29.27900882 -10 38 C-10.7425 39.03125 -11.485 40.0625 -12.25 41.125 C-21.14820228 50.42766602 -31.07402835 57.25344766 -44 58 C-42.70819105 51.05652692 -40.57015926 45.16007923 -37.5 38.8125 C-37.06002686 37.89702393 -36.62005371 36.98154785 -36.16674805 36.03833008 C-32.21233496 28.03463171 -27.55916417 20.96308868 -22 14 C-21.38382813 13.20207031 -20.76765625 12.40414063 -20.1328125 11.58203125 C-15.39546152 5.7640403 -8.15748119 -1.94225743 0 0 Z " fill="#F9FCFC" transform="translate(596,423)"/>
<path d="M0 0 C0.66 0 1.32 0 2 0 C2.10957031 0.95261719 2.21914062 1.90523437 2.33203125 2.88671875 C2.49058594 4.14097656 2.64914062 5.39523437 2.8125 6.6875 C2.96332031 7.92886719 3.11414062 9.17023437 3.26953125 10.44921875 C3.9958664 13.97990674 4.87024265 16.12194952 7 19 C11.65782185 21.99431404 16.63473947 22.9865619 22 24 C22 24.33 22 24.66 22 25 C21.19175781 25.17015625 20.38351562 25.3403125 19.55078125 25.515625 C11.37745057 27.09771894 11.37745057 27.09771894 5 32 C3.11638527 37.55666346 2.51267983 43.17163982 2 49 C1.34 49 0.68 49 0 49 C-0.09796875 48.13117187 -0.1959375 47.26234375 -0.296875 46.3671875 C-1.30335962 37.37692049 -1.30335962 37.37692049 -6 30 C-10.88017066 26.74655289 -16.3096431 25.95588999 -22 25 C-22 24.34 -22 23.68 -22 23 C-21.20335937 22.90203125 -20.40671875 22.8040625 -19.5859375 22.703125 C-11.02112243 21.63740999 -11.02112243 21.63740999 -4 17 C-1.32934617 11.62689884 -0.53778212 5.91560337 0 0 Z " fill="#F39A32" transform="translate(1099,556)"/>
<path d="M0 0 C0.66 0 1.32 0 2 0 C2.15855469 1.09699219 2.31710937 2.19398438 2.48046875 3.32421875 C2.71508152 4.7788179 2.95081823 6.23323607 3.1875 7.6875 C3.28869141 8.40873047 3.38988281 9.12996094 3.49414062 9.87304688 C4.3573216 14.98214508 5.65521266 17.81382262 10 21 C13.321527 22.01837502 13.321527 22.01837502 16.8125 22.3125 C17.97394531 22.45300781 19.13539062 22.59351563 20.33203125 22.73828125 C21.21246094 22.82464844 22.09289063 22.91101563 23 23 C23 23.66 23 24.32 23 25 C22.11957031 25.17015625 21.23914062 25.3403125 20.33203125 25.515625 C19.17058594 25.75796875 18.00914063 26.0003125 16.8125 26.25 C15.66394531 26.48203125 14.51539063 26.7140625 13.33203125 26.953125 C9.74272624 28.08083162 7.71552212 29.42765996 5 32 C3.06090477 35.77613281 2.12148229 39.91460024 1 44 C-0.50943084 41.19768114 -1.40287639 38.57530327 -2.1875 35.5 C-3.39120529 31.87100731 -3.91702531 31.06604108 -7.0625 28.5625 C-11.45901008 26.49632895 -16.22847824 25.7296492 -21 25 C-20.67 24.34 -20.34 23.68 -20 23 C-18.824375 22.896875 -17.64875 22.79375 -16.4375 22.6875 C-11.45587548 22.13199511 -7.56415545 20.60521715 -4 17 C-1.41004511 11.72185056 -0.63036527 5.79936044 0 0 Z " fill="#F18D30" transform="translate(1138,535)"/>
<path d="M0 0 C2.65512235 2.60211628 5.23379405 5.2257586 7.69140625 8.015625 C20.72910785 22.77173693 38.13872662 35.71290887 57 42 C56 44 56 44 54 45 C56.08129104 45.98350025 58.16511359 46.96164458 60.25 47.9375 C61.41015625 48.48277344 62.5703125 49.02804687 63.765625 49.58984375 C66.23044777 50.66448266 68.38065227 51.48780081 71 52 C71 52.66 71 53.32 71 54 C65.85482164 53.35424887 61.49664649 51.09103187 56.875 48.875 C55.60293701 48.26712646 55.60293701 48.26712646 54.30517578 47.64697266 C33.43114993 37.5111233 13.29204443 21.15937739 0 2 C0 1.34 0 0.68 0 0 Z " fill="#2F8EB8" transform="translate(457,572)"/>
<path d="M0 0 C5.44026366 -0.02502598 10.88049259 -0.0430116 16.32080078 -0.05493164 C18.16520777 -0.05990958 20.00961093 -0.06669434 21.85400391 -0.07543945 C51.57467707 -0.21266146 51.57467707 -0.21266146 58 3 C45.13 3.33 32.26 3.66 19 4 C19.99 3.67 20.98 3.34 22 3 C22 2.34 22 1.68 22 1 C14.74 1 7.48 1 0 1 C0 0.67 0 0.34 0 0 Z " fill="#DFAF32" transform="translate(882,523)"/>
<path d="M0 0 C6.0546875 -0.1953125 6.0546875 -0.1953125 8 0 C8.66 0.66 9.32 1.32 10 2 C8.865625 1.979375 7.73125 1.95875 6.5625 1.9375 C3.18424326 1.58422523 3.18424326 1.58422523 2 3 C1.67320778 4.30419804 1.389127 5.6191819 1.125 6.9375 C-1.02434412 16.91547707 -4.51018367 26.42714413 -8 36 C-8.66 36 -9.32 36 -10 36 C-8.58710551 30.72920211 -7.16124183 25.4678717 -5.5625 20.25 C-3.52458326 13.55089073 -1.77864472 6.77149006 0 0 Z " fill="#B9B03B" transform="translate(846,414)"/>
<path d="M0 0 C2.66815507 2.6195548 5.26839546 5.26391902 7.76171875 8.05078125 C13.18506772 14.10567281 18.48709781 19.55455648 25.13671875 24.31640625 C27.21333148 26.19275863 27.64698496 27.26562925 28 30 C23.09192893 26.97161572 19.1640314 23.47740183 15.125 19.375 C14.5151123 18.75979492 13.90522461 18.14458984 13.27685547 17.51074219 C0 3.95544988 0 3.95544988 0 0 Z " fill="#4297C5" transform="translate(457,572)"/>
<path d="M0 0 C-8.49097945 2.01222493 -17.00660062 3.86734144 -25.55004883 5.64160156 C-26.718302 5.88475098 -26.718302 5.88475098 -27.91015625 6.1328125 C-28.60246338 6.27605957 -29.29477051 6.41930664 -30.00805664 6.56689453 C-31.35152966 6.859004 -32.68958346 7.1770811 -34.02124023 7.51904297 C-36.9814876 8.23856022 -39.98331215 8.5939074 -43 9 C-43 8.34 -43 7.68 -43 7 C-38.89395564 6.01447257 -34.78626955 5.03618583 -30.67700195 4.06420898 C-29.28298931 3.73345088 -27.88942147 3.40081163 -26.49633789 3.06616211 C-6.20222619 -1.8052985 -6.20222619 -1.8052985 0 0 Z " fill="#BAAC34" transform="translate(849,529)"/>
<path d="M0 0 C6.36416924 1.56752937 12.71356657 3.14264467 19 5 C19 5.33 19 5.66 19 6 C11.37685526 6.23576736 4.41430591 5.83717315 -3 4 C-1.68 3.34 -0.36 2.68 1 2 C0.67 1.34 0.34 0.68 0 0 Z " fill="#F18B43" transform="translate(1066,555)"/>
<path d="M0 0 C0.33 0.99 0.66 1.98 1 3 C-2.63 6.63 -6.26 10.26 -10 14 C-10 11 -10 11 -8 9 C-8.061875 8.21625 -8.12375 7.4325 -8.1875 6.625 C-8 4 -8 4 -5.6875 1.6875 C-3 0 -3 0 0 0 Z " fill="#B19B21" transform="translate(822,498)"/>
<path d="M0 0 C-1 1 -1 1 -4.0625 1.0625 C-5.031875 1.041875 -6.00125 1.02125 -7 1 C-7 1.66 -7 2.32 -7 3 C-12.94 3.33 -18.88 3.66 -25 4 C-25 3.67 -25 3.34 -25 3 C-21.58604938 2.29852167 -18.16853031 1.61627764 -14.75 0.9375 C-13.78191406 0.73833984 -12.81382812 0.53917969 -11.81640625 0.33398438 C-10.88183594 0.15029297 -9.94726562 -0.03339844 -8.984375 -0.22265625 C-8.12553711 -0.39547119 -7.26669922 -0.56828613 -6.38183594 -0.74633789 C-3.94790649 -1.00554788 -2.31101537 -0.75084609 0 0 Z " fill="#E2AA3A" transform="translate(887,549)"/>
<path d="M0 0 C0.66 0 1.32 0 2 0 C2.33 4.29 2.66 8.58 3 13 C1.35 13.33 -0.3 13.66 -2 14 C-1.34 9.38 -0.68 4.76 0 0 Z " fill="#F2A553" transform="translate(1138,535)"/>
<path d="M0 0 C0.33 0 0.66 0 1 0 C0.47773964 5.84931599 -0.78340257 10.58858844 -3 16 C-3.56699604 17.49830629 -4.12963855 18.99826871 -4.6875 20.5 C-5.120625 21.655 -5.55375 22.81 -6 24 C-6.66 24 -7.32 24 -8 24 C-5.69356492 15.86184696 -2.89571216 7.94317882 0 0 Z " fill="#2E9FED" transform="translate(394,458)"/>
<path d="M0 0 C-14.7 5 -14.7 5 -19 5 C-19 4.34 -19 3.68 -19 3 C-16.586238 2.30048937 -14.16989766 1.61516081 -11.75 0.9375 C-11.06808594 0.73833984 -10.38617187 0.53917969 -9.68359375 0.33398438 C-3.41657839 -1.40009269 -3.41657839 -1.40009269 0 0 Z " fill="#D6AE39" transform="translate(854,556)"/>
<path d="M0 0 C0.66 0.33 1.32 0.66 2 1 C-2.62 5.62 -7.24 10.24 -12 15 C-12.66 14.67 -13.32 14.34 -14 14 C-9.61932717 8.89662734 -5.32423478 4.12628195 0 0 Z " fill="#CFECFA" transform="translate(475,415)"/>
<path d="M0 0 C-5.73310689 2.39748106 -10.80481527 3.58411954 -17 4 C-17 3.34 -17 2.68 -17 2 C-14.91952703 1.4678559 -12.83547707 0.94968214 -10.75 0.4375 C-9.58984375 0.14746094 -8.4296875 -0.14257812 -7.234375 -0.44140625 C-4.27909017 -0.95179964 -2.75565899 -1.02996165 0 0 Z " fill="#AEB140" transform="translate(823,534)"/>
<path d="M0 0 C1 2 1 2 0.328125 4.53125 C-0.02765625 5.5109375 -0.3834375 6.490625 -0.75 7.5 C-1.09546875 8.4796875 -1.4409375 9.459375 -1.796875 10.46875 C-3 13 -3 13 -6 15 C-3.10933941 4.44191344 -3.10933941 4.44191344 0 0 Z " fill="#D7AC34" transform="translate(896,453)"/>
<path d="M0 0 C1.18224668 3.54674003 0.89329634 5.97522995 0.5625 9.6875 C0.46066406 10.86699219 0.35882812 12.04648437 0.25390625 13.26171875 C0.17011719 14.16535156 0.08632813 15.06898438 0 16 C-0.33 16 -0.66 16 -1 16 C-1.33 13.03 -1.66 10.06 -2 7 C-2.99 7.66 -3.98 8.32 -5 9 C-3.7508258 5.54074837 -2.32472205 2.85306797 0 0 Z " fill="#E2ECCB" transform="translate(769,488)"/>
<path d="M0 0 C-1 3 -1 3 -2.77734375 4.203125 C-3.49019531 4.54859375 -4.20304687 4.8940625 -4.9375 5.25 C-6.00291016 5.78367187 -6.00291016 5.78367187 -7.08984375 6.328125 C-8.03537109 6.66070312 -8.03537109 6.66070312 -9 7 C-9.66 6.67 -10.32 6.34 -11 6 C-9.54550599 4.9944239 -8.08627557 3.99569565 -6.625 3 C-5.40683594 2.1646875 -5.40683594 2.1646875 -4.1640625 1.3125 C-2 0 -2 0 0 0 Z " fill="#33ACE9" transform="translate(488,395)"/>
<path d="M0 0 C0.99 0.33 1.98 0.66 3 1 C0.69 3.64 -1.62 6.28 -4 9 C-4.33 8.01 -4.66 7.02 -5 6 C-3.59554165 3.7363436 -1.8032087 1.9791315 0 0 Z " fill="#32A4A1" transform="translate(608,487)"/>
<path d="M0 0 C0.66 0 1.32 0 2 0 C1.25 7.75 1.25 7.75 -1 10 C-2.31223496 6.06329512 -1.24296256 3.87511856 0 0 Z " fill="#ACBE55" transform="translate(790,422)"/>
<path d="M0 0 C0.99 0.495 0.99 0.495 2 1 C2.4140625 3.06640625 2.4140625 3.06640625 2.625 5.5625 C2.69976563 6.38878906 2.77453125 7.21507812 2.8515625 8.06640625 C2.92503906 9.02353516 2.92503906 9.02353516 3 10 C2.34 9.67 1.68 9.34 1 9 C0.5859375 6.93359375 0.5859375 6.93359375 0.375 4.4375 C0.30023437 3.61121094 0.22546875 2.78492188 0.1484375 1.93359375 C0.09945312 1.29550781 0.05046875 0.65742188 0 0 Z " fill="#37B3DC" transform="translate(528,399)"/>
<path d="M0 0 C2.97 0.495 2.97 0.495 6 1 C5.67 1.99 5.34 2.98 5 4 C2.36 4 -0.28 4 -3 4 C-1.68 3.34 -0.36 2.68 1 2 C0.67 1.34 0.34 0.68 0 0 Z " fill="#F27A25" transform="translate(1066,555)"/>
<path d="M0 0 C1 3 1 3 -0.3125 6.625 C-2 10 -2 10 -4 11 C-3.5247412 9.35303396 -3.04468109 7.70745272 -2.5625 6.0625 C-2.29566406 5.14597656 -2.02882813 4.22945313 -1.75390625 3.28515625 C-1 1 -1 1 0 0 Z " fill="#2B98E8" transform="translate(384,487)"/>
</svg>
